<svg width="22" height="23" viewBox="0 0 22 23" fill="none" xmlns="http://www.w3.org/2000/svg">
<g id="ic:round-airline-seat-recline-normal">
<path id="Vector" d="M6.95685 5.45854C6.24185 4.74354 6.24185 3.57938 6.95685 2.86438C7.67185 2.14937 8.83602 2.14937 9.55102 2.86438C10.266 3.57938 10.266 4.74354 9.55102 5.45854C8.82685 6.18271 7.67185 6.18271 6.95685 5.45854ZM5.49935 15.166V7.83271C5.49935 7.32854 5.08685 6.91604 4.58268 6.91604C4.07852 6.91604 3.66602 7.32854 3.66602 7.83271V15.166C3.66602 17.696 5.71935 19.7494 8.24935 19.7494H12.8327C13.3368 19.7494 13.7493 19.3369 13.7493 18.8327C13.7493 18.3285 13.3368 17.916 12.8327 17.916H8.24935C6.72768 17.916 5.49935 16.6877 5.49935 15.166ZM17.6727 18.2369L14.2168 14.781C13.8777 14.4419 13.4102 14.2494 12.9243 14.2494H10.541V10.876C11.5402 11.6919 12.9793 12.4344 14.391 12.7277C15.0052 12.856 15.5827 12.3977 15.5827 11.7744C15.5827 11.2885 15.2252 10.8944 14.7393 10.8119C13.4377 10.5919 12.0993 9.88604 11.3018 9.00604L10.0185 7.58521C9.84435 7.39271 9.62435 7.23688 9.38601 7.12688C9.12018 6.99854 8.81768 6.91604 8.50602 6.91604H8.47852C7.34185 6.91604 6.41602 7.84188 6.41602 8.97854V14.2494C6.41602 15.771 7.64435 16.9994 9.16602 16.9994H13.8135L16.3618 19.5477C16.7193 19.9052 17.3152 19.9052 17.6727 19.5477C18.0393 19.1902 18.0393 18.6035 17.6727 18.2369Z" fill="#FF7013"/>
</g>
</svg>
