<svg width="22" height="23" viewBox="0 0 22 23" fill="none" xmlns="http://www.w3.org/2000/svg">
<g id="calendar">
<path id="Vector" d="M19.25 6.78566C19.25 6.16051 19.0017 5.56096 18.5596 5.11891C18.1176 4.67686 17.518 4.42852 16.8929 4.42852H16.3036V3.85581C16.3036 3.5387 16.0598 3.26652 15.7426 3.25068C15.663 3.24684 15.5833 3.25922 15.5086 3.28707C15.4338 3.31491 15.3655 3.35764 15.3078 3.41267C15.25 3.4677 15.204 3.53388 15.1726 3.6072C15.1412 3.68052 15.125 3.75946 15.125 3.83923V4.42852H6.875V3.85581C6.875 3.5387 6.63118 3.26652 6.31407 3.25068C6.2344 3.24684 6.15477 3.25922 6.08002 3.28707C6.00527 3.31491 5.93695 3.35764 5.8792 3.41267C5.82145 3.4677 5.77547 3.53388 5.74405 3.6072C5.71264 3.68052 5.69644 3.75946 5.69643 3.83923V4.42852H5.10714C4.48199 4.42852 3.88244 4.67686 3.44039 5.11891C2.99834 5.56096 2.75 6.16051 2.75 6.78566V7.22762C2.75 7.2667 2.76552 7.30417 2.79315 7.3318C2.82078 7.35942 2.85825 7.37495 2.89732 7.37495H19.1027C19.1418 7.37495 19.1792 7.35942 19.2069 7.3318C19.2345 7.30417 19.25 7.2667 19.25 7.22762V6.78566ZM2.75 17.3928C2.75 18.018 2.99834 18.6175 3.44039 19.0596C3.88244 19.5016 4.48199 19.7499 5.10714 19.7499H16.8929C17.518 19.7499 18.1176 19.5016 18.5596 19.0596C19.0017 18.6175 19.25 18.018 19.25 17.3928V8.66401C19.25 8.6347 19.2384 8.6066 19.2176 8.58588C19.1969 8.56516 19.1688 8.55352 19.1395 8.55352H2.86049C2.83119 8.55352 2.80308 8.56516 2.78236 8.58588C2.76164 8.6066 2.75 8.6347 2.75 8.66401V17.3928ZM15.4196 9.73209C15.5945 9.73209 15.7654 9.78393 15.9107 9.88106C16.0561 9.97818 16.1694 10.1162 16.2363 10.2778C16.3032 10.4393 16.3207 10.617 16.2866 10.7885C16.2525 10.9599 16.1683 11.1174 16.0447 11.241C15.9211 11.3647 15.7636 11.4489 15.5921 11.483C15.4206 11.5171 15.2429 11.4996 15.0814 11.4327C14.9199 11.3658 14.7818 11.2525 14.6847 11.1071C14.5876 10.9617 14.5357 10.7908 14.5357 10.616C14.5357 10.3816 14.6288 10.1568 14.7946 9.99098C14.9604 9.82522 15.1852 9.73209 15.4196 9.73209ZM15.4196 12.6785C15.5945 12.6785 15.7654 12.7304 15.9107 12.8275C16.0561 12.9246 16.1694 13.0627 16.2363 13.2242C16.3032 13.3857 16.3207 13.5634 16.2866 13.7349C16.2525 13.9064 16.1683 14.0639 16.0447 14.1875C15.9211 14.3111 15.7636 14.3953 15.5921 14.4294C15.4206 14.4635 15.2429 14.446 15.0814 14.3791C14.9199 14.3122 14.7818 14.1989 14.6847 14.0535C14.5876 13.9082 14.5357 13.7373 14.5357 13.5624C14.5357 13.328 14.6288 13.1032 14.7946 12.9374C14.9604 12.7716 15.1852 12.6785 15.4196 12.6785ZM12.4732 9.73209C12.648 9.73209 12.8189 9.78393 12.9643 9.88106C13.1097 9.97818 13.223 10.1162 13.2899 10.2778C13.3568 10.4393 13.3743 10.617 13.3402 10.7885C13.3061 10.9599 13.2219 11.1174 13.0982 11.241C12.9746 11.3647 12.8171 11.4489 12.6457 11.483C12.4742 11.5171 12.2965 11.4996 12.135 11.4327C11.9734 11.3658 11.8354 11.2525 11.7383 11.1071C11.6411 10.9617 11.5893 10.7908 11.5893 10.616C11.5893 10.3816 11.6824 10.1568 11.8482 9.99098C12.014 9.82522 12.2388 9.73209 12.4732 9.73209ZM12.4732 12.6785C12.648 12.6785 12.8189 12.7304 12.9643 12.8275C13.1097 12.9246 13.223 13.0627 13.2899 13.2242C13.3568 13.3857 13.3743 13.5634 13.3402 13.7349C13.3061 13.9064 13.2219 14.0639 13.0982 14.1875C12.9746 14.3111 12.8171 14.3953 12.6457 14.4294C12.4742 14.4635 12.2965 14.446 12.135 14.3791C11.9734 14.3122 11.8354 14.1989 11.7383 14.0535C11.6411 13.9082 11.5893 13.7373 11.5893 13.5624C11.5893 13.328 11.6824 13.1032 11.8482 12.9374C12.014 12.7716 12.2388 12.6785 12.4732 12.6785ZM12.4732 15.6249C12.648 15.6249 12.8189 15.6768 12.9643 15.7739C13.1097 15.871 13.223 16.0091 13.2899 16.1706C13.3568 16.3321 13.3743 16.5099 13.3402 16.6813C13.3061 16.8528 13.2219 17.0103 13.0982 17.1339C12.9746 17.2575 12.8171 17.3417 12.6457 17.3758C12.4742 17.4099 12.2965 17.3924 12.135 17.3255C11.9734 17.2586 11.8354 17.1453 11.7383 17C11.6411 16.8546 11.5893 16.6837 11.5893 16.5089C11.5893 16.2744 11.6824 16.0496 11.8482 15.8838C12.014 15.7181 12.2388 15.6249 12.4732 15.6249ZM9.52679 12.6785C9.70161 12.6785 9.87251 12.7304 10.0179 12.8275C10.1632 12.9246 10.2765 13.0627 10.3434 13.2242C10.4103 13.3857 10.4278 13.5634 10.3937 13.7349C10.3596 13.9064 10.2754 14.0639 10.1518 14.1875C10.0282 14.3111 9.8707 14.3953 9.69923 14.4294C9.52777 14.4635 9.35004 14.446 9.18852 14.3791C9.027 14.3122 8.88895 14.1989 8.79183 14.0535C8.6947 13.9082 8.64286 13.7373 8.64286 13.5624C8.64286 13.328 8.73599 13.1032 8.90175 12.9374C9.06752 12.7716 9.29235 12.6785 9.52679 12.6785ZM9.52679 15.6249C9.70161 15.6249 9.87251 15.6768 10.0179 15.7739C10.1632 15.871 10.2765 16.0091 10.3434 16.1706C10.4103 16.3321 10.4278 16.5099 10.3937 16.6813C10.3596 16.8528 10.2754 17.0103 10.1518 17.1339C10.0282 17.2575 9.8707 17.3417 9.69923 17.3758C9.52777 17.4099 9.35004 17.3924 9.18852 17.3255C9.027 17.2586 8.88895 17.1453 8.79183 17C8.6947 16.8546 8.64286 16.6837 8.64286 16.5089C8.64286 16.2744 8.73599 16.0496 8.90175 15.8838C9.06752 15.7181 9.29235 15.6249 9.52679 15.6249ZM6.58036 12.6785C6.75518 12.6785 6.92608 12.7304 7.07144 12.8275C7.2168 12.9246 7.3301 13.0627 7.397 13.2242C7.4639 13.3857 7.48141 13.5634 7.4473 13.7349C7.4132 13.9064 7.32901 14.0639 7.20539 14.1875C7.08177 14.3111 6.92427 14.3953 6.7528 14.4294C6.58134 14.4635 6.40361 14.446 6.24209 14.3791C6.08058 14.3122 5.94252 14.1989 5.8454 14.0535C5.74827 13.9082 5.69643 13.7373 5.69643 13.5624C5.69643 13.328 5.78956 13.1032 5.95533 12.9374C6.12109 12.7716 6.34592 12.6785 6.58036 12.6785ZM6.58036 15.6249C6.75518 15.6249 6.92608 15.6768 7.07144 15.7739C7.2168 15.871 7.3301 16.0091 7.397 16.1706C7.4639 16.3321 7.48141 16.5099 7.4473 16.6813C7.4132 16.8528 7.32901 17.0103 7.20539 17.1339C7.08177 17.2575 6.92427 17.3417 6.7528 17.3758C6.58134 17.4099 6.40361 17.3924 6.24209 17.3255C6.08058 17.2586 5.94252 17.1453 5.8454 17C5.74827 16.8546 5.69643 16.6837 5.69643 16.5089C5.69643 16.2744 5.78956 16.0496 5.95533 15.8838C6.12109 15.7181 6.34592 15.6249 6.58036 15.6249Z" fill="#FF7013"/>
</g>
</svg>
