<svg width="22" height="22" viewBox="0 0 22 22" fill="none" xmlns="http://www.w3.org/2000/svg">
<g id="vuesax/bold/people">
<g id="people">
<path id="Vector" d="M15.9943 7.376C15.923 7.36846 15.8516 7.36846 15.7803 7.376C14.6458 7.32494 13.7486 6.39078 13.7486 5.24255C13.7486 4.06346 14.7055 3.09951 15.8917 3.09951C17.0704 3.09951 18.034 4.05578 18.0347 5.24135C18.0267 6.3913 17.128 7.32496 15.9943 7.376Z" fill="#FF7013" stroke="#FF7013" stroke-width="0.746269"/>
<path id="Vector_2" d="M18.817 13.7836C17.8418 14.4366 16.4749 14.6804 15.2125 14.5149C15.5433 13.801 15.7175 13.0087 15.7262 12.1729C15.7262 11.3022 15.5346 10.4751 15.1689 9.75249C16.4575 9.57836 17.8244 9.82214 18.8082 10.4751C20.1839 11.3806 20.1839 12.8694 18.817 13.7836Z" fill="#FF7013"/>
<path id="Vector_3" d="M6.32323 7.75001C6.38418 7.7413 6.44512 7.7413 6.50607 7.75001C7.85557 7.70648 8.92646 6.60076 8.92646 5.24255C8.92646 3.84951 7.80333 2.72638 6.41029 2.72638C5.02597 2.72638 3.90283 3.84951 3.90283 5.24255C3.90283 6.60076 4.97373 7.70648 6.32323 7.75001Z" fill="#FF7013"/>
<path id="Vector_4" d="M6.41892 12.1729C6.41892 13.0174 6.60176 13.8184 6.9326 14.541C5.70499 14.6716 4.42514 14.4104 3.48484 13.7923C2.10922 12.8781 2.10922 11.3893 3.48484 10.4751C4.41643 9.84824 5.73111 9.59576 6.96743 9.73506C6.61046 10.4664 6.41892 11.2935 6.41892 12.1729Z" fill="#FF7013"/>
<path id="Vector_5" d="M11.2686 14.8022C11.199 14.7935 11.1206 14.7935 11.0422 14.8022C9.44025 14.75 8.1604 13.4353 8.1604 11.8159C8.16911 10.1617 9.5012 8.82089 11.1641 8.82089C12.8184 8.82089 14.1592 10.1617 14.1592 11.8159C14.1504 13.4353 12.8793 14.75 11.2686 14.8022Z" fill="#FF7013"/>
<path id="Vector_6" d="M8.43889 16.6045C7.12421 17.4838 7.12421 18.9291 8.43889 19.7998C9.9364 20.801 12.3916 20.801 13.8891 19.7998C15.2038 18.9204 15.2038 17.4751 13.8891 16.6045C12.4003 15.6032 9.94511 15.6032 8.43889 16.6045Z" fill="#FF7013"/>
</g>
</g>
</svg>
