<svg width="22" height="23" viewBox="0 0 22 23" fill="none" xmlns="http://www.w3.org/2000/svg">
<g id="timmer">
<path id="Vector" d="M11 3.25C6.44386 3.25 2.75 6.94386 2.75 11.5C2.75 16.0561 6.44386 19.75 11 19.75C15.5561 19.75 19.25 16.0561 19.25 11.5C19.25 6.94386 15.5561 3.25 11 3.25ZM14.8077 12.7692H11C10.8317 12.7692 10.6703 12.7024 10.5513 12.5834C10.4322 12.4643 10.3654 12.3029 10.3654 12.1346V6.42308C10.3654 6.25477 10.4322 6.09335 10.5513 5.97434C10.6703 5.85532 10.8317 5.78846 11 5.78846C11.1683 5.78846 11.3297 5.85532 11.4487 5.97434C11.5678 6.09335 11.6346 6.25477 11.6346 6.42308V11.5H14.8077C14.976 11.5 15.1374 11.5669 15.2564 11.6859C15.3754 11.8049 15.4423 11.9663 15.4423 12.1346C15.4423 12.3029 15.3754 12.4643 15.2564 12.5834C15.1374 12.7024 14.976 12.7692 14.8077 12.7692Z" fill="#FF7013"/>
</g>
</svg>
